<?xml version="1.0" encoding="UTF-8"?>
<svg xmlns="http://www.w3.org/2000/svg" xmlns:xlink="http://www.w3.org/1999/xlink" width="150px" height="150px" viewBox="0 0 150 150" version="1.1">
<g id="surface1">
<path style=" stroke:none;fill-rule:nonzero;fill:rgb(100%,100%,100%);fill-opacity:1;" d="M 146.101562 75.03125 C 146.101562 35.761719 114.269531 3.925781 75 3.925781 C 35.730469 3.925781 3.898438 35.761719 3.898438 75.03125 C 3.898438 114.296875 35.730469 146.132812 75 146.132812 C 114.269531 146.132812 146.101562 114.296875 146.101562 75.03125 Z M 146.101562 75.03125 "/>
<path style=" stroke:none;fill-rule:nonzero;fill:rgb(61.56863%,78.431374%,14.509805%);fill-opacity:1;" d="M 75 6.125 C 112.96875 6.125 143.90625 37 143.90625 75.027344 C 143.90625 113.054688 112.96875 143.875 75 143.875 C 37.03125 143.875 6.09375 113 6.09375 74.96875 C 6.09375 36.945312 36.945312 6.125 75 6.125 M 75 1.757812 C 34.601562 1.757812 1.789062 34.539062 1.789062 74.96875 C 1.789062 115.398438 34.511719 148.242188 75 148.242188 C 115.488281 148.242188 148.210938 115.460938 148.210938 75.03125 C 148.210938 34.601562 115.398438 1.757812 75 1.757812 Z M 75 1.757812 "/>
<path style=" stroke:none;fill-rule:nonzero;fill:rgb(61.56863%,78.431374%,14.509805%);fill-opacity:1;" d="M 89.121094 100.429688 C 89.121094 102.421875 87.570312 103.976562 85.574219 103.976562 L 51.179688 103.976562 C 49.1875 103.976562 47.636719 102.421875 47.636719 100.429688 L 47.636719 47.34375 C 47.636719 45.351562 49.1875 43.796875 51.179688 43.796875 L 85.578125 43.796875 C 87.570312 43.796875 89.121094 45.351562 89.121094 47.34375 L 89.121094 61.523438 L 97.414062 53.234375 L 97.414062 47.34375 C 97.414062 40.867188 92.140625 35.507812 85.578125 35.507812 L 51.179688 35.507812 C 44.617188 35.507812 39.34375 40.78125 39.34375 47.34375 L 39.34375 100.429688 C 39.34375 106.90625 44.617188 112.265625 51.179688 112.265625 L 85.578125 112.265625 C 92.140625 112.265625 97.414062 106.992188 97.414062 100.429688 L 97.414062 89.792969 C 96.125 90.730469 93.691406 92.136719 89.121094 93.074219 C 89.121094 93.078125 89.121094 100.429688 89.121094 100.429688 Z M 129.667969 39.40625 C 126.914062 36.648438 122.402344 36.648438 119.648438 39.40625 L 88.796875 70.078125 L 98.820312 80.097656 L 129.695312 49.394531 C 132.453125 46.671875 132.453125 42.15625 129.667969 39.40625 Z M 82.296875 76.582031 L 78.308594 90.5 L 92.3125 86.601562 L 95.421875 83.496094 L 85.398438 73.476562 Z M 58.886719 88.59375 C 56.632812 88.59375 54.726562 90.410156 54.726562 92.753906 C 54.726562 95.007812 56.542969 96.914062 58.886719 96.914062 L 69.523438 96.914062 C 71.777344 96.914062 73.679688 95.097656 73.679688 92.753906 C 73.679688 90.5 71.867188 88.59375 69.523438 88.59375 Z M 58.886719 88.59375 "/>
</g>
</svg>
